<svg width="1440" height="900" xmlns="http://www.w3.org/2000/svg">
  <!-- Background -->
  <rect width="1440" height="900" fill="#f4f4f4"/>

  <!-- Left Sidebar Navigation -->
  <rect width="64" height="900" fill="#ffffff"/>

  <!-- Logo/Brand -->
  <circle cx="32" cy="32" r="20" fill="#954293"/>
  <text x="32" y="38" font-family="Arial, sans-serif" font-size="16" font-weight="bold" fill="#ffffff" text-anchor="middle">R</text>

  <!-- Nav Icons -->
  <rect x="18" y="100" width="28" height="28" fill="#954293" rx="6" opacity="0.15"/>
  <rect x="20" y="102" width="24" height="24" fill="#954293" rx="4"/>
  <text x="32" y="120" font-family="Arial, sans-serif" font-size="16" fill="#ffffff" text-anchor="middle">⚡</text>

  <circle cx="32" cy="164" r="14" fill="#e7eaf7"/>
  <text x="32" y="170" font-family="Arial, sans-serif" font-size="14" fill="#737373" text-anchor="middle">⏱</text>

  <circle cx="32" cy="220" r="14" fill="#e7eaf7"/>
  <text x="32" y="226" font-family="Arial, sans-serif" font-size="14" fill="#737373" text-anchor="middle">⚙</text>

  <circle cx="32" cy="840" r="14" fill="#e7eaf7"/>
  <text x="32" y="846" font-family="Arial, sans-serif" font-size="14" fill="#737373" text-anchor="middle">👤</text>

  <!-- Main Content Area - PDF Viewer -->
  <rect x="88" y="24" width="840" height="852" fill="#ffffff" rx="12"/>

  <!-- PDF Toolbar -->
  <rect x="88" y="24" width="840" height="56" fill="#ffffff" rx="12"/>
  <text x="112" y="58" font-family="Arial, sans-serif" font-size="15" fill="#1a1a1a" font-weight="500">Contract_FL_2023_5829.pdf</text>

  <!-- Page controls -->
  <text x="720" y="58" font-family="Arial, sans-serif" font-size="13" fill="#737373">Page 5 of 8</text>
  <circle cx="800" cy="52" r="16" fill="#f4f4f4"/>
  <text x="800" y="58" font-family="Arial, sans-serif" font-size="18" fill="#737373" text-anchor="middle">−</text>
  <circle cx="836" cy="52" r="16" fill="#f4f4f4"/>
  <text x="836" y="58" font-family="Arial, sans-serif" font-size="18" fill="#737373" text-anchor="middle">+</text>
  <circle cx="872" cy="52" r="16" fill="#f4f4f4"/>
  <text x="872" y="59" font-family="Arial, sans-serif" font-size="16" fill="#737373" text-anchor="middle">↓</text>
  <circle cx="908" cy="52" r="16" fill="#f4f4f4"/>
  <text x="908" y="58" font-family="Arial, sans-serif" font-size="18" fill="#737373" text-anchor="middle">⋮</text>

  <!-- PDF Content Area -->
  <rect x="112" y="104" width="792" height="748" fill="#f2f2f2" rx="4"/>

  <!-- PDF page mockup -->
  <rect x="140" y="132" width="736" height="692" fill="#ffffff"/>

  <!-- Document content -->
  <text x="160" y="164" font-family="Arial, sans-serif" font-size="14" font-weight="bold" fill="#2a2a2a">SECTION 7: CANCELLATION AND REFUNDS</text>

  <line x1="160" y1="188" x2="840" y2="188" stroke="#e7eaf7" stroke-width="1"/>
  <line x1="160" y1="204" x2="820" y2="204" stroke="#e7eaf7" stroke-width="1"/>
  <line x1="160" y1="220" x2="850" y2="220" stroke="#e7eaf7" stroke-width="1"/>

  <text x="160" y="252" font-family="Arial, sans-serif" font-size="12" font-weight="600" fill="#2a2a2a">7.1 Refund Calculation Method</text>
  <rect x="160" y="264" width="480" height="44" fill="#fee6ff" opacity="0.4" rx="4"/>
  <text x="172" y="282" font-family="Arial, sans-serif" font-size="11" fill="#2a2a2a">All refunds under this contract shall be calculated on a</text>
  <text x="172" y="298" font-family="Arial, sans-serif" font-size="11" font-weight="600" fill="#650360">pro-rata basis</text>
  <text x="246" y="298" font-family="Arial, sans-serif" font-size="11" fill="#2a2a2a">based on the remaining term of coverage.</text>

  <!-- Annotation callout -->
  <rect x="660" y="264" width="200" height="60" fill="#fee6ff" rx="6"/>
  <text x="672" y="280" font-family="Arial, sans-serif" font-size="10" font-weight="600" fill="#650360">✓ HIGH CONFIDENCE</text>
  <text x="672" y="296" font-family="Arial, sans-serif" font-size="9" fill="#2a2a2a">Extracted: "Pro-Rata"</text>
  <text x="672" y="310" font-family="Arial, sans-serif" font-size="9" fill="#2a2a2a">Confidence: 98%</text>
  <text x="672" y="320" font-family="Arial, sans-serif" font-size="9" fill="#2a97da">View details →</text>

  <line x1="160" y1="326" x2="840" y2="326" stroke="#e7eaf7" stroke-width="1"/>
  <line x1="160" y1="342" x2="825" y2="342" stroke="#e7eaf7" stroke-width="1"/>
  <line x1="160" y1="358" x2="850" y2="358" stroke="#e7eaf7" stroke-width="1"/>
  <line x1="160" y1="374" x2="810" y2="374" stroke="#e7eaf7" stroke-width="1"/>

  <text x="160" y="406" font-family="Arial, sans-serif" font-size="12" font-weight="600" fill="#2a2a2a">7.3 Cancellation Fees</text>
  <rect x="160" y="418" width="520" height="28" fill="#fff4e6" opacity="0.5" rx="4"/>
  <text x="172" y="436" font-family="Arial, sans-serif" font-size="11" fill="#2a2a2a">A cancellation administrative fee of</text>
  <text x="388" y="436" font-family="Arial, sans-serif" font-size="11" font-weight="600" fill="#fe8700">$50.00</text>
  <text x="438" y="436" font-family="Arial, sans-serif" font-size="11" fill="#2a2a2a">shall apply to all cancellations.</text>

  <!-- Warning annotation -->
  <rect x="700" y="418" width="160" height="48" fill="#fff4e6" rx="6"/>
  <text x="712" y="434" font-family="Arial, sans-serif" font-size="10" font-weight="600" fill="#fe8700">⚠ MEDIUM</text>
  <text x="712" y="448" font-family="Arial, sans-serif" font-size="9" fill="#2a2a2a">Confidence: 87%</text>
  <text x="712" y="458" font-family="Arial, sans-serif" font-size="9" fill="#fe8700">Review →</text>

  <!-- Right Panel - Data Analysis -->
  <rect x="952" y="24" width="464" height="852" fill="#ffffff" rx="12"/>

  <!-- Header with metrics -->
  <text x="976" y="54" font-family="Arial, sans-serif" font-size="18" font-weight="600" fill="#1a1a1a">Finance Review</text>
  <rect x="1280" y="36" width="112" height="28" fill="#e3f5ec" rx="14"/>
  <circle cx="1292" cy="50" r="4" fill="#2da062"/>
  <text x="1300" y="54" font-family="Arial, sans-serif" font-size="12" font-weight="500" fill="#2da062">Overall 94%</text>

  <!-- Account info card -->
  <rect x="976" y="80" width="416" height="96" fill="#f4f4f4" rx="8"/>
  <text x="996" y="104" font-family="Arial, sans-serif" font-size="11" fill="#737373">ACCOUNT NUMBER</text>
  <text x="996" y="124" font-family="Arial, sans-serif" font-size="15" font-weight="600" fill="#1a1a1a">ACC-2024-00847</text>
  <text x="996" y="148" font-family="Arial, sans-serif" font-size="11" fill="#737373">CONTRACT ID</text>
  <text x="996" y="165" font-family="Arial, sans-serif" font-size="13" font-weight="500" fill="#1a1a1a">CTR-FL-2023-5829</text>

  <text x="1240" y="104" font-family="Arial, sans-serif" font-size="11" fill="#737373">STATE</text>
  <text x="1240" y="124" font-family="Arial, sans-serif" font-size="15" font-weight="600" fill="#1a1a1a">Florida</text>
  <text x="1240" y="148" font-family="Arial, sans-serif" font-size="11" fill="#737373">TEMPLATE</text>
  <text x="1240" y="165" font-family="Arial, sans-serif" font-size="13" font-weight="500" fill="#1a1a1a">FL-23-B</text>

  <!-- Extracted Data Section -->
  <text x="976" y="208" font-family="Arial, sans-serif" font-size="14" font-weight="600" fill="#1a1a1a">Extracted Fields</text>

  <!-- Data field 1 with detailed confidence -->
  <rect x="976" y="224" width="416" height="104" fill="#f2f2f2" rx="8"/>
  <text x="996" y="246" font-family="Arial, sans-serif" font-size="12" fill="#737373">GAP Insurance Premium</text>
  <rect x="1310" y="234" width="72" height="20" fill="#e3f5ec" rx="10"/>
  <text x="1346" y="248" font-family="Arial, sans-serif" font-size="10" font-weight="600" fill="#2da062" text-anchor="middle">High 96%</text>

  <text x="996" y="276" font-family="Arial, sans-serif" font-size="26" font-weight="600" fill="#1a1a1a">$1,249.00</text>
  <text x="996" y="298" font-family="Arial, sans-serif" font-size="11" fill="#909090">Page 3, Section 4.2, Line 18</text>
  <text x="996" y="314" font-family="Arial, sans-serif" font-size="11" fill="#2a97da">View in document →</text>

  <!-- Data field 2 -->
  <rect x="976" y="344" width="416" height="104" fill="#f2f2f2" rx="8"/>
  <text x="996" y="366" font-family="Arial, sans-serif" font-size="12" fill="#737373">Refund Calculation Method</text>
  <rect x="1310" y="354" width="72" height="20" fill="#e3f5ec" rx="10"/>
  <text x="1346" y="368" font-family="Arial, sans-serif" font-size="10" font-weight="600" fill="#2da062" text-anchor="middle">High 98%</text>

  <text x="996" y="396" font-family="Arial, sans-serif" font-size="26" font-weight="600" fill="#1a1a1a">Pro-Rata</text>
  <text x="996" y="418" font-family="Arial, sans-serif" font-size="11" fill="#909090">Page 5, Section 7.1, Line 4</text>
  <text x="996" y="434" font-family="Arial, sans-serif" font-size="11" fill="#2a97da">View in document →</text>

  <!-- Data field 3 with warning -->
  <rect x="976" y="464" width="416" height="120" fill="#fff4e6" rx="8" stroke="#fe8700" stroke-width="1"/>
  <text x="996" y="486" font-family="Arial, sans-serif" font-size="12" fill="#737373">Cancellation Fee</text>
  <rect x="1310" y="474" width="72" height="20" fill="#fff4e6" rx="10"/>
  <text x="1346" y="488" font-family="Arial, sans-serif" font-size="10" font-weight="600" fill="#fe8700" text-anchor="middle">Med 87%</text>

  <text x="996" y="516" font-family="Arial, sans-serif" font-size="26" font-weight="600" fill="#1a1a1a">$50.00</text>
  <text x="996" y="538" font-family="Arial, sans-serif" font-size="11" fill="#909090">Page 5, Section 7.3, Line 12</text>
  <text x="996" y="554" font-family="Arial, sans-serif" font-size="11" fill="#2a97da">View in document →</text>
  <rect x="996" y="562" width="376" height="14" fill="#fff4e6" rx="4"/>
  <text x="1004" y="572" font-family="Arial, sans-serif" font-size="10" fill="#fe8700">⚠ Lower confidence - manual verification recommended</text>

  <!-- Audit trail -->
  <rect x="976" y="600" width="416" height="80" fill="#f4f4f4" rx="8"/>
  <text x="996" y="620" font-family="Arial, sans-serif" font-size="12" font-weight="600" fill="#1a1a1a">Processing Audit</text>
  <text x="996" y="638" font-family="Arial, sans-serif" font-size="11" fill="#737373">Processed: Nov 4, 2025 10:23:47 AM EST</text>
  <text x="996" y="654" font-family="Arial, sans-serif" font-size="11" fill="#737373">Model: GPT-4 v2.1 | Time: 8.3s</text>
  <text x="996" y="670" font-family="Arial, sans-serif" font-size="11" fill="#2a97da">View full audit log →</text>

  <!-- Action buttons -->
  <rect x="976" y="696" width="130" height="44" fill="#2da062" rx="8"/>
  <text x="1041" y="723" font-family="Arial, sans-serif" font-size="14" font-weight="600" fill="#ffffff" text-anchor="middle">Approve All</text>

  <rect x="1120" y="696" width="130" height="44" fill="#954293" rx="8"/>
  <text x="1185" y="723" font-family="Arial, sans-serif" font-size="14" font-weight="600" fill="#ffffff" text-anchor="middle">Edit</text>

  <rect x="1264" y="696" width="128" height="44" fill="#ffffff" rx="8" stroke="#e7eaf7" stroke-width="1"/>
  <text x="1328" y="723" font-family="Arial, sans-serif" font-size="14" font-weight="600" fill="#737373" text-anchor="middle">Reject</text>

  <!-- AI Chat Input Area (expandable) -->
  <rect x="976" y="760" width="416" height="92" fill="#ffffff" rx="8" stroke="#e7eaf7" stroke-width="1"/>
  <text x="996" y="784" font-family="Arial, sans-serif" font-size="13" fill="#909090">Ask AI about this contract or search for another...</text>

  <!-- Toolbar icons in input -->
  <text x="996" y="832" font-family="Arial, sans-serif" font-size="16" fill="#909090">📎</text>
  <text x="1032" y="832" font-family="Arial, sans-serif" font-size="16" fill="#909090">🔍</text>

  <!-- Send button -->
  <circle cx="1372" cy="826" r="20" fill="#954293"/>
  <text x="1372" y="832" font-family="Arial, sans-serif" font-size="16" fill="#ffffff" text-anchor="middle">→</text>

  <!-- Expand indicator -->
  <rect x="1184" y="756" width="28" height="4" fill="#e7eaf7" rx="2"/>

  <!-- Status footer -->
  <text x="976" y="870" font-family="Arial, sans-serif" font-size="10" fill="#909090">Status: Ready for review • Updated 2 min ago</text>
</svg>
