<svg width="1440" height="900" xmlns="http://www.w3.org/2000/svg">
  <!-- Background -->
  <rect width="1440" height="900" fill="#fafafa"/>

  <!-- Left Sidebar Navigation -->
  <rect width="64" height="900" fill="#ffffff"/>

  <!-- Logo/Brand -->
  <circle cx="32" cy="32" r="20" fill="#3b82f6"/>
  <text x="32" y="38" font-family="Arial, sans-serif" font-size="16" font-weight="bold" fill="#ffffff" text-anchor="middle">R</text>

  <!-- Nav Icons -->
  <rect x="18" y="100" width="28" height="28" fill="#3b82f6" rx="6" opacity="0.15"/>
  <rect x="20" y="102" width="24" height="24" fill="#3b82f6" rx="4"/>
  <text x="32" y="120" font-family="Arial, sans-serif" font-size="16" fill="#ffffff" text-anchor="middle">⚡</text>

  <circle cx="32" cy="164" r="14" fill="#f1f5f9"/>
  <text x="32" y="170" font-family="Arial, sans-serif" font-size="14" fill="#64748b" text-anchor="middle">⏱</text>

  <circle cx="32" cy="220" r="14" fill="#f1f5f9"/>
  <text x="32" y="226" font-family="Arial, sans-serif" font-size="14" fill="#64748b" text-anchor="middle">⚙</text>

  <circle cx="32" cy="840" r="14" fill="#f1f5f9"/>
  <text x="32" y="846" font-family="Arial, sans-serif" font-size="14" fill="#64748b" text-anchor="middle">👤</text>

  <!-- Main Content Area - PDF Viewer -->
  <rect x="88" y="24" width="840" height="852" fill="#ffffff" rx="12"/>

  <!-- PDF Toolbar -->
  <rect x="88" y="24" width="840" height="56" fill="#ffffff" rx="12"/>
  <text x="112" y="58" font-family="Arial, sans-serif" font-size="15" fill="#0f172a" font-weight="500">Contract_FL_2023_5829.pdf</text>

  <!-- Page controls -->
  <text x="780" y="58" font-family="Arial, sans-serif" font-size="13" fill="#64748b">Page 5 of 8</text>
  <circle cx="860" cy="52" r="16" fill="#f8fafc"/>
  <text x="860" y="58" font-family="Arial, sans-serif" font-size="18" fill="#64748b" text-anchor="middle">−</text>
  <circle cx="896" cy="52" r="16" fill="#f8fafc"/>
  <text x="896" y="58" font-family="Arial, sans-serif" font-size="18" fill="#64748b" text-anchor="middle">+</text>

  <!-- PDF Content Area -->
  <rect x="112" y="104" width="792" height="748" fill="#fafafa" rx="4"/>

  <!-- PDF page mockup -->
  <rect x="140" y="132" width="736" height="692" fill="#ffffff"/>

  <!-- Document content -->
  <text x="160" y="164" font-family="Arial, sans-serif" font-size="14" font-weight="bold" fill="#1e293b">SECTION 7: CANCELLATION AND REFUNDS</text>

  <line x1="160" y1="188" x2="840" y2="188" stroke="#e2e8f0" stroke-width="1"/>
  <line x1="160" y1="204" x2="820" y2="204" stroke="#e2e8f0" stroke-width="1"/>
  <line x1="160" y1="220" x2="850" y2="220" stroke="#e2e8f0" stroke-width="1"/>

  <text x="160" y="252" font-family="Arial, sans-serif" font-size="12" font-weight="600" fill="#475569">7.1 Refund Calculation Method</text>
  <rect x="160" y="264" width="480" height="44" fill="#dbeafe" opacity="0.3" rx="4"/>
  <text x="172" y="282" font-family="Arial, sans-serif" font-size="11" fill="#475569">All refunds under this contract shall be calculated on a</text>
  <text x="172" y="298" font-family="Arial, sans-serif" font-size="11" font-weight="600" fill="#1e40af">pro-rata basis</text>
  <text x="246" y="298" font-family="Arial, sans-serif" font-size="11" fill="#475569">based on the remaining term of coverage.</text>

  <line x1="160" y1="326" x2="840" y2="326" stroke="#e2e8f0" stroke-width="1"/>
  <line x1="160" y1="342" x2="825" y2="342" stroke="#e2e8f0" stroke-width="1"/>
  <line x1="160" y1="358" x2="850" y2="358" stroke="#e2e8f0" stroke-width="1"/>
  <line x1="160" y1="374" x2="810" y2="374" stroke="#e2e8f0" stroke-width="1"/>

  <text x="160" y="406" font-family="Arial, sans-serif" font-size="12" font-weight="600" fill="#475569">7.3 Cancellation Fees</text>
  <rect x="160" y="418" width="520" height="28" fill="#fef3c7" opacity="0.3" rx="4"/>
  <text x="172" y="436" font-family="Arial, sans-serif" font-size="11" fill="#475569">A cancellation administrative fee of</text>
  <text x="388" y="436" font-family="Arial, sans-serif" font-size="11" font-weight="600" fill="#92400e">$50.00</text>
  <text x="438" y="436" font-family="Arial, sans-serif" font-size="11" fill="#475569">shall apply to all cancellations.</text>

  <!-- Right Panel - AI Assistant & Data -->
  <rect x="952" y="24" width="464" height="852" fill="#ffffff" rx="12"/>

  <!-- Header -->
  <text x="976" y="58" font-family="Arial, sans-serif" font-size="18" font-weight="600" fill="#0f172a">Contract Review</text>

  <!-- Account info card -->
  <rect x="976" y="80" width="416" height="72" fill="#f8fafc" rx="8"/>
  <text x="996" y="104" font-family="Arial, sans-serif" font-size="12" fill="#64748b">Account</text>
  <text x="996" y="124" font-family="Arial, sans-serif" font-size="16" font-weight="600" fill="#0f172a">ACC-2024-00847</text>
  <text x="1280" y="104" font-family="Arial, sans-serif" font-size="12" fill="#64748b">State</text>
  <text x="1280" y="124" font-family="Arial, sans-serif" font-size="16" font-weight="600" fill="#0f172a">FL</text>

  <!-- Extracted Data -->
  <text x="976" y="184" font-family="Arial, sans-serif" font-size="14" font-weight="600" fill="#0f172a">Extracted Data</text>
  <rect x="1300" y="168" width="92" height="24" fill="#dcfce7" rx="12"/>
  <circle cx="1312" cy="180" r="3" fill="#10b981"/>
  <text x="1320" y="184" font-family="Arial, sans-serif" font-size="12" font-weight="500" fill="#166534">High 94%</text>

  <!-- Data field 1 -->
  <rect x="976" y="204" width="416" height="88" fill="#fafafa" rx="8"/>
  <text x="996" y="228" font-family="Arial, sans-serif" font-size="13" fill="#64748b">GAP Insurance Premium</text>
  <text x="996" y="256" font-family="Arial, sans-serif" font-size="24" font-weight="600" fill="#0f172a">$1,249.00</text>
  <text x="996" y="278" font-family="Arial, sans-serif" font-size="11" fill="#94a3b8">Page 3, Section 4.2</text>

  <!-- Data field 2 -->
  <rect x="976" y="308" width="416" height="88" fill="#fafafa" rx="8"/>
  <text x="996" y="332" font-family="Arial, sans-serif" font-size="13" fill="#64748b">Refund Method</text>
  <text x="996" y="360" font-family="Arial, sans-serif" font-size="24" font-weight="600" fill="#0f172a">Pro-Rata</text>
  <text x="996" y="382" font-family="Arial, sans-serif" font-size="11" fill="#94a3b8">Page 5, Section 7.1</text>

  <!-- Data field 3 -->
  <rect x="976" y="412" width="416" height="88" fill="#fafafa" rx="8"/>
  <text x="996" y="436" font-family="Arial, sans-serif" font-size="13" fill="#64748b">Cancellation Fee</text>
  <text x="996" y="464" font-family="Arial, sans-serif" font-size="24" font-weight="600" fill="#0f172a">$50.00</text>
  <text x="996" y="486" font-family="Arial, sans-serif" font-size="11" fill="#94a3b8">Page 5, Section 7.3</text>

  <!-- Action buttons -->
  <rect x="976" y="528" width="200" height="48" fill="#10b981" rx="8"/>
  <text x="1076" y="557" font-family="Arial, sans-serif" font-size="15" font-weight="600" fill="#ffffff" text-anchor="middle">Approve</text>

  <rect x="1192" y="528" width="200" height="48" fill="#f1f5f9" rx="8"/>
  <text x="1292" y="557" font-family="Arial, sans-serif" font-size="15" font-weight="600" fill="#64748b" text-anchor="middle">Reject</text>

  <!-- AI Chat Input Area (expandable) -->
  <rect x="976" y="604" width="416" height="248" fill="#f8fafc" rx="8"/>
  <text x="996" y="632" font-family="Arial, sans-serif" font-size="13" font-weight="500" fill="#64748b">Ask AI Assistant</text>

  <!-- Chat messages -->
  <rect x="996" y="652" width="376" height="56" fill="#ffffff" rx="6"/>
  <text x="1012" y="672" font-family="Arial, sans-serif" font-size="12" fill="#64748b">Previous search:</text>
  <text x="1012" y="690" font-family="Arial, sans-serif" font-size="13" fill="#0f172a">"ACC-2024-00847"</text>

  <!-- Expandable input -->
  <rect x="996" y="724" width="376" height="112" fill="#ffffff" rx="8" stroke="#e2e8f0" stroke-width="1"/>
  <text x="1016" y="752" font-family="Arial, sans-serif" font-size="14" fill="#94a3b8">Ask a question or search for another contract...</text>

  <!-- Send button -->
  <circle cx="1352" cy="816" r="20" fill="#3b82f6"/>
  <text x="1352" y="822" font-family="Arial, sans-serif" font-size="16" fill="#ffffff" text-anchor="middle">→</text>

  <!-- Expand indicator -->
  <rect x="1168" y="720" width="28" height="4" fill="#cbd5e1" rx="2"/>

  <!-- Status footer -->
  <text x="996" y="870" font-family="Arial, sans-serif" font-size="11" fill="#94a3b8">Processed 2 min ago • 8.3s</text>
</svg>
